<svg xmlns="http://www.w3.org/2000/svg" data-name="Layer 1" viewBox="0 0 95 118.75" x="0px" y="0px"><path d="M16.221,47.5a1.189,1.189,0,1,1-2.378,0V34.876a5.49,5.49,0,1,1,5.114-9.708c.1-.062.2-.12.3-.182L38.507,13.872h0l1.676-.968a7.826,7.826,0,0,1-.12-1.353,7.368,7.368,0,1,1,14.735,0,7.45,7.45,0,0,1-.125,1.353l1.921,1.107a.453.453,0,0,1,.058.039C62.97,17.7,69.307,21.316,75.6,24.99l.005,0c.13.077.251.149.366.221a5.49,5.49,0,1,1,5.042,9.732V47.5a1.187,1.187,0,1,1-2.374,0V35.411a5.489,5.489,0,0,1-4.445-8.5L55.467,16.1a.373.373,0,0,1-.062-.033l-1.556-.9a7.245,7.245,0,0,1-1.209,1.594,7.371,7.371,0,0,1-10.42,0,7.458,7.458,0,0,1-1.214-1.594l-1.309.756h0C33.4,19.592,27.075,23.209,20.762,26.854a5.488,5.488,0,0,1-4.541,8.557ZM47.43,76.082a7.345,7.345,0,0,1,5.21,2.157,7.5,7.5,0,0,1,1.209,1.594L74.421,67.958A1.183,1.183,0,0,1,75.6,70.01L54.673,82.092a7.519,7.519,0,0,1,.125,1.357,7.368,7.368,0,1,1-14.735,0,7.43,7.43,0,0,1,.125-1.357L19.26,70.01a1.184,1.184,0,1,1,1.18-2.052L41.011,79.833a7.361,7.361,0,0,1,6.419-3.751Zm3.53,3.843a4.993,4.993,0,1,0,1.459,3.524,4.973,4.973,0,0,0-1.459-3.524Zm-32.548-52.2a3.113,3.113,0,1,0,.911,2.2,3.1,3.1,0,0,0-.911-2.2Zm62.572,0a3.1,3.1,0,1,0,.915,2.2,3.094,3.094,0,0,0-.915-2.2ZM50.96,8.021a5,5,0,1,0,1.459,3.53,4.989,4.989,0,0,0-1.459-3.53Zm1.762,36.948a19.348,19.348,0,0,1,9.718,6.463,14.02,14.02,0,0,1,2.754-1.276c-.159-.135-.308-.275-.452-.419a7.009,7.009,0,1,1,9.915,0c-.145.144-.294.284-.453.414A14.095,14.095,0,0,1,83.7,62.006a2.38,2.38,0,0,1-.1,1,2.451,2.451,0,0,1-.506.872,2.41,2.41,0,0,1-.813.6,2.486,2.486,0,0,1-.988.207H13.573a2.463,2.463,0,0,1-.987-.207,2.414,2.414,0,0,1-.814-.6,2.384,2.384,0,0,1-.607-1.869,14.1,14.1,0,0,1,9.487-11.855c-.154-.13-.3-.27-.448-.414a7.014,7.014,0,1,1,9.915,0c-.145.144-.3.284-.453.419a14.029,14.029,0,0,1,2.755,1.276,19.262,19.262,0,0,1,9.717-6.463,9.349,9.349,0,0,1-1.319-14.321,9.35,9.35,0,1,1,11.9,14.321Zm11.09,8.4a19.117,19.117,0,0,1,2.764,8.085,3.03,3.03,0,0,1-.029.843h14.74c.02,0,.015.01.02.005s0-.005.014-.019l.015-.015v-.024a11.7,11.7,0,0,0-17.524-8.875ZM28.313,62.3a2.722,2.722,0,0,1-.029-.843,19.117,19.117,0,0,1,2.764-8.085,11.708,11.708,0,0,0-17.523,8.875c-.005.015-.005.024,0,.024l.009.015c.015.014.015.019.015.019s.005-.005.024-.005Zm30.4-11.364A16.882,16.882,0,0,0,30.644,61.7a.509.509,0,0,0,.019.231.519.519,0,0,0,.115.193.53.53,0,0,0,.183.14.472.472,0,0,0,.217.038h32.5a.5.5,0,0,0,.222-.038.508.508,0,0,0,.178-.14.524.524,0,0,0,.12-.193.509.509,0,0,0,.02-.231,16.844,16.844,0,0,0-5.5-10.762ZM52.361,32.329A6.975,6.975,0,1,0,54.4,37.26a6.949,6.949,0,0,0-2.042-4.931ZM72.976,41.5a4.633,4.633,0,1,0,1.358,3.28,4.624,4.624,0,0,0-1.358-3.28Zm-44.538,0a4.633,4.633,0,1,0,1.358,3.28,4.624,4.624,0,0,0-1.358-3.28Z"/></svg>