<svg xmlns="http://www.w3.org/2000/svg" xmlns:xlink="http://www.w3.org/1999/xlink" version="1.1" x="0px" y="0px" viewBox="0 0 550 687.5" style="enable-background:new 0 0 550 550;" xml:space="preserve"><g><g><g><path d="M330,483H42c-4.418,0-8-3.582-8-8V27c0-4.418,3.582-8,8-8h336c4.418,0,8,3.582,8,8v162c0,4.418-3.582,8-8,8s-8-3.582-8-8     V35H50v432h280c4.418,0,8,3.582,8,8S334.418,483,330,483z"/></g><g><path d="M405.581,433.921c-7.132,0.001-13.294-5.464-18.812-10.357c-2.606-2.312-6.934-6.149-8.77-6.55     c-1.836,0.4-6.163,4.238-8.77,6.55c-6.307,5.594-13.468,11.931-21.93,10.005c-8.706-1.979-12.464-10.967-15.779-18.897     c-1.271-3.043-3.374-8.072-4.759-9.314c-1.859-0.359-7.229,1.167-10.477,2.085c-8.185,2.313-17.463,4.938-24.338-0.551     c-6.9-5.511-6.396-15.166-5.95-23.685c0.175-3.348,0.464-8.883-0.277-10.612c-1.521-1.092-6.945-2.029-10.227-2.597     c-8.434-1.458-17.994-3.11-21.848-11.101c-3.806-7.888,0.806-16.317,4.875-23.754c1.634-2.986,4.335-7.925,4.395-9.831     c-0.913-1.604-5.288-4.729-7.936-6.622C247.958,313.673,240,307.986,240,299c0-8.985,7.958-14.672,14.979-19.688     c2.649-1.893,7.024-5.02,7.937-6.623c-0.059-1.906-2.761-6.845-4.395-9.831c-4.068-7.437-8.68-15.867-4.875-23.755     c3.855-7.99,13.414-9.642,21.848-11.1c3.281-0.567,8.705-1.505,10.227-2.597c0.742-1.73,0.453-7.266,0.278-10.614     c-0.445-8.519-0.95-18.173,5.949-23.683c6.874-5.489,16.151-2.866,24.339-0.551c3.247,0.918,8.616,2.436,10.476,2.085     c1.385-1.242,3.488-6.272,4.76-9.315c3.315-7.93,7.072-16.918,15.777-18.897c8.478-1.926,15.624,4.413,21.931,10.006     c2.605,2.311,6.934,6.149,8.77,6.549c1.836-0.4,6.164-4.238,8.77-6.549c6.308-5.593,13.452-11.927,21.93-10.006     c8.706,1.979,12.464,10.968,15.779,18.898c1.271,3.043,3.374,8.072,4.759,9.314c1.853,0.347,7.228-1.166,10.477-2.084     c8.187-2.314,17.464-4.938,24.339,0.551c6.899,5.509,6.395,15.165,5.949,23.684c-0.175,3.347-0.464,8.882,0.277,10.613     c1.521,1.092,6.945,2.029,10.227,2.596c8.434,1.458,17.993,3.109,21.848,11.1c3.806,7.889-0.806,16.318-4.874,23.755     c-1.634,2.986-4.336,7.924-4.395,9.831c0.912,1.604,5.288,4.73,7.937,6.623C508.042,284.328,516,290.015,516,299     s-7.958,14.672-14.979,19.688c-2.648,1.893-7.024,5.02-7.937,6.623c0.059,1.906,2.761,6.845,4.395,9.831     c4.068,7.438,8.68,15.867,4.874,23.755c-3.854,7.99-13.414,9.643-21.848,11.101c-3.281,0.567-8.705,1.505-10.228,2.597     c-0.741,1.73-0.452,7.266-0.277,10.613c0.445,8.519,0.95,18.174-5.95,23.683c-6.872,5.487-16.151,2.866-24.337,0.551     c-3.248-0.918-8.62-2.431-10.477-2.085c-1.385,1.242-3.487,6.272-4.76,9.315c-3.315,7.931-7.072,16.918-15.777,18.896     C407.64,433.81,406.601,433.921,405.581,433.921z M326.165,389.323c2.632,0,5.18,0.448,7.579,1.606     c6.508,3.139,9.574,10.476,12.54,17.57c1.204,2.881,3.132,7.493,4.562,9.182c1.954-0.933,5.529-4.103,7.769-6.089     C364.486,406.385,370.559,401,378,401s13.513,5.385,19.385,10.592c2.24,1.986,5.815,5.157,7.77,6.09     c1.43-1.689,3.356-6.3,4.561-9.181c2.967-7.095,6.033-14.432,12.541-17.57c6.602-3.187,14.333-1,21.812,1.114     c2.9,0.82,7.513,2.125,9.737,2.125c0.035,0,0.068,0,0.102-0.001c0.535-2.126,0.277-7.049,0.117-10.126     c-0.404-7.741-0.823-15.747,3.735-21.454c4.536-5.681,12.408-7.041,20.021-8.357c3.054-0.527,7.94-1.372,9.9-2.374     c-0.459-2.128-2.783-6.377-4.238-9.036c-3.742-6.841-7.612-13.914-5.978-21.102c1.591-7,8.028-11.601,14.254-16.049     c2.62-1.872,6.849-4.894,8.08-6.671c-1.231-1.777-5.46-4.799-8.08-6.671c-6.226-4.448-12.663-9.049-14.254-16.05     c-1.635-7.187,2.235-14.26,5.978-21.101c1.455-2.659,3.779-6.908,4.238-9.035c-1.961-1.002-6.847-1.847-9.899-2.375     c-7.614-1.316-15.486-2.676-20.022-8.357c-4.558-5.708-4.14-13.712-3.734-21.453c0.16-3.078,0.418-8.002-0.117-10.127     c-2.191-0.034-6.895,1.291-9.84,2.124c-7.479,2.114-15.208,4.301-21.813,1.115c-6.507-3.139-9.573-10.475-12.539-17.57     c-1.204-2.881-3.132-7.493-4.562-9.182c-1.954,0.933-5.529,4.103-7.769,6.089C391.514,191.615,385.441,197,378,197     s-13.514-5.385-19.386-10.592c-2.239-1.986-5.814-5.157-7.769-6.089c-1.43,1.689-3.356,6.3-4.561,9.181     c-2.967,7.095-6.033,14.432-12.541,17.571c-6.603,3.185-14.335,0.999-21.812-1.116c-2.945-0.833-7.641-2.158-9.839-2.124     c-0.535,2.125-0.277,7.049-0.117,10.126c0.404,7.742,0.823,15.747-3.735,21.454c-4.536,5.681-12.408,7.042-20.022,8.357     c-3.053,0.528-7.939,1.372-9.899,2.375c0.459,2.127,2.784,6.376,4.238,9.036c3.742,6.84,7.611,13.914,5.978,21.102     c-1.591,7-8.028,11.601-14.254,16.049c-2.62,1.872-6.848,4.894-8.08,6.671c1.232,1.777,5.46,4.799,8.081,6.672     c6.225,4.448,12.663,9.048,14.253,16.048c1.634,7.188-2.235,14.261-5.978,21.102c-1.455,2.659-3.779,6.907-4.238,9.035     c1.96,1.002,6.847,1.847,9.9,2.374c7.613,1.316,15.485,2.677,20.021,8.357c4.558,5.708,4.14,13.712,3.734,21.453     c-0.16,3.078-0.418,8.002,0.117,10.128c0.033,0,0.066,0.001,0.101,0.001c2.226,0,6.838-1.305,9.739-2.125     C316.692,390.699,321.556,389.323,326.165,389.323z M429.077,405.395L429.077,405.395L429.077,405.395z M429.367,405.25     C429.367,405.251,429.366,405.251,429.367,405.25C429.367,405.251,429.367,405.25,429.367,405.25z M326.633,405.249     C326.633,405.249,326.633,405.249,326.633,405.249C326.633,405.25,326.633,405.249,326.633,405.249z M453.673,394.816     L453.673,394.816L453.673,394.816z M454.594,394.087L454.594,394.087L454.594,394.087z M301.405,394.086L301.405,394.086z      M470.148,372.697L470.148,372.697L470.148,372.697z M285.852,372.696L285.852,372.696L285.852,372.696z M470.351,372.445     C470.351,372.446,470.351,372.446,470.351,372.445L470.351,372.445z M488.261,351.481L488.261,351.481L488.261,351.481z      M267.739,351.48L267.739,351.48z M262.913,325.145L262.913,325.145L262.913,325.145z M500.07,299.483h0.01H500.07z      M255.93,298.517L255.93,298.517z M262.913,272.855C262.913,272.855,262.913,272.855,262.913,272.855L262.913,272.855z      M488.261,246.519L488.261,246.519L488.261,246.519z M267.739,246.519L267.739,246.519L267.739,246.519z M285.649,225.554     L285.649,225.554L285.649,225.554z M285.852,225.303L285.852,225.303L285.852,225.303z M454.595,203.914L454.595,203.914     L454.595,203.914z M301.406,203.913L301.406,203.913L301.406,203.913z M453.674,203.184L453.674,203.184L453.674,203.184z      M404.656,179.839C404.656,179.839,404.656,179.839,404.656,179.839C404.656,179.839,404.656,179.839,404.656,179.839z      M351.344,179.839L351.344,179.839z"/></g><g><path d="M426.001,531c-1.553,0-3.1-0.451-4.438-1.344L378,500.615l-43.563,29.041c-2.455,1.637-5.61,1.79-8.212,0.397     S322,525.95,322,523V398c0-4.418,3.582-8,8-8s8,3.582,8,8v110.052l35.563-23.708c2.688-1.791,6.188-1.791,8.875,0L418,508.052     V398c0-4.418,3.582-8,8-8s8,3.582,8,8v125c0,2.95-1.624,5.661-4.226,7.054C428.592,530.687,427.295,531,426.001,531z"/></g><g><path d="M378,379c-44.112,0-80-35.888-80-80s35.888-80,80-80s80,35.888,80,80S422.112,379,378,379z M378,235     c-35.29,0-64,28.71-64,64c0,35.29,28.71,64,64,64s64-28.71,64-64C442,263.71,413.29,235,378,235z"/></g><g><path d="M394.953,334.336c-1.273,0-2.552-0.304-3.722-0.919L378,326.46l-13.231,6.957c-2.694,1.416-5.962,1.18-8.425-0.608     c-2.464-1.79-3.697-4.823-3.183-7.825l2.526-14.733l-10.704-10.435c-2.181-2.125-2.966-5.305-2.024-8.2     c0.94-2.896,3.444-5.007,6.458-5.445l14.793-2.149l6.616-13.405c1.348-2.731,4.129-4.459,7.174-4.459s5.826,1.729,7.174,4.459     l6.616,13.405l14.793,2.149c3.014,0.438,5.518,2.549,6.458,5.445c0.941,2.896,0.156,6.075-2.024,8.2l-10.704,10.435l2.526,14.733     c0.515,3.002-0.719,6.035-3.183,7.825C398.263,333.82,396.612,334.336,394.953,334.336z M378,309.422     c1.279,0,2.558,0.307,3.723,0.919l2.606,1.371l-0.497-2.902c-0.445-2.596,0.415-5.243,2.301-7.081l2.109-2.056l-2.915-0.424     c-2.605-0.379-4.858-2.016-6.023-4.376L378,292.231l-1.304,2.642c-1.165,2.36-3.418,3.997-6.023,4.376l-2.915,0.424l2.109,2.056     c1.886,1.838,2.746,4.485,2.301,7.081l-0.497,2.902l2.606-1.371C375.442,309.729,376.721,309.422,378,309.422z"/></g><g><path d="M330,99H74c-4.418,0-8-3.582-8-8V59c0-4.418,3.582-8,8-8h256c4.418,0,8,3.582,8,8v32C338,95.418,334.418,99,330,99z      M82,83h240V67H82V83z"/></g><g><path d="M306,171H74c-4.418,0-8-3.582-8-8v-32c0-4.418,3.582-8,8-8h232c4.418,0,8,3.582,8,8v32C314,167.418,310.418,171,306,171z      M82,155h216v-16H82V155z"/></g><g><path d="M226,243H74c-4.418,0-8-3.582-8-8v-32c0-4.418,3.582-8,8-8h152c4.418,0,8,3.582,8,8v32C234,239.418,230.418,243,226,243z      M82,227h136v-16H82V227z"/></g><g><path d="M218,315H74c-4.418,0-8-3.582-8-8v-32c0-4.418,3.582-8,8-8h144c4.418,0,8,3.582,8,8v32C226,311.418,222.418,315,218,315z      M82,299h128v-16H82V299z"/></g><g><path d="M226,387H74c-4.418,0-8-3.582-8-8v-32c0-4.418,3.582-8,8-8h152c4.418,0,8,3.582,8,8v32C234,383.418,230.418,387,226,387z      M82,371h136v-16H82V371z"/></g><g><path  d="M266,451H74c-4.418,0-8-3.582-8-8v-32c0-4.418,3.582-8,8-8h192c4.418,0,8,3.582,8,8v32C274,447.418,270.418,451,266,451z      M82,435h176v-16H82V435z"/></g></g></g></svg>