<svg xmlns="http://www.w3.org/2000/svg" version="1.1" viewBox="-5.0 -10.0 110.0 135.0">
 <path d="m88 13.602h-76c-6.1016 0-11 4.8984-11 11v41.5c0 6.1016 4.8984 11 11 11h16.801v6.6016h-5.1992c-0.69922 0-1.3008 0.60156-1.3008 1.3008 0 0.69922 0.60156 1.3008 1.3008 1.3008h51.801c0.69922 0 1.3008-0.60156 1.3008-1.3008 0-0.69922-0.60156-1.3008-1.3008-1.3008h-5.1992v-6.6016h17.797c6.1016 0 11-4.8984 11-11v-41.5c0-6.1016-4.8984-11-11-11zm-76 2.5977h76c4.6016 0 8.3008 3.6992 8.3008 8.3008v39.699h-92.602v-39.598c0-4.6016 3.6992-8.4023 8.3008-8.4023zm55.5 67.602h-36v-6.6016h36.102v6.6016zm20.5-9.3008h-76c-4.3008 0-7.8984-3.3008-8.3008-7.5h92.602c-0.40234 4.1992-4 7.5-8.3008 7.5zm-50.5-26.199 11.898 6.8984 0.10156 0.10156h0.10156 0.10156 0.19922 0.19922 0.10156 0.10156c0.10156 0 0.10156 0 0.10156-0.10156l11.898-6.8984c0.39844-0.19922 0.69922-0.69922 0.69922-1.1992l-0.003906-13.703v-0.19922-0.10156-0.10156s0-0.10156-0.10156-0.10156l-0.10156-0.10156-0.20312-0.20312-0.10156-0.10156-11.797-6.7969c-0.39844-0.19922-0.89844-0.19922-1.3008 0l-11.898 6.8984c-0.39844 0.19922-0.69922 0.69922-0.69922 1.1992v13.699c0.003906 0.11328 0.20312 0.51172 0.70312 0.8125zm2-12.5 9.1992 5.1992v10.602l-9.1992-5.3008zm11.801 15.898v-10.602l9.1992-5.3008v10.602zm-1.3008-23.598 5.3008 3 3.8984 2.3008-9.1992 5.2969-9.1992-5.3008zm-23.199 0.39844v-6.3984c0-0.69922 0.60156-1.3008 1.3008-1.3008h6.3984c0.69922 0 1.3008 0.60156 1.3008 1.3008 0 0.69922-0.60156 1.3008-1.3008 1.3008h-5v5c0 0.69922-0.60156 1.3008-1.3008 1.3008-0.69922-0.003906-1.3984-0.50391-1.3984-1.2031zm37.398-6.3984c0-0.69922 0.60156-1.3008 1.3008-1.3008h6.3984c0.69922 0 1.3008 0.60156 1.3008 1.3008v6.3984c0 0.69922-0.60156 1.3008-1.3008 1.3008-0.69922 0-1.3008-0.60156-1.3008-1.3008v-5h-5c-0.79688 0-1.3984-0.60156-1.3984-1.3984zm-37.398 36.297v-6.3984c0-0.69922 0.60156-1.3008 1.3008-1.3008 0.69922 0 1.3008 0.60156 1.3008 1.3008v5h5c0.69922 0 1.3008 0.60156 1.3008 1.3008s-0.60156 1.3008-1.3008 1.3008h-6.3984c-0.60547 0.097657-1.2031-0.5-1.2031-1.2031zm37.398 0c0-0.69922 0.60156-1.3008 1.3008-1.3008h5v-5c0-0.69922 0.60156-1.3008 1.3008-1.3008s1.3008 0.60156 1.3008 1.3008v6.3984c0 0.69922-0.60156 1.3008-1.3008 1.3008h-6.3984c-0.60156-0.097656-1.2031-0.69531-1.2031-1.3984z"/></svg>