<svg width="24" height="24" viewBox="0 0 24 24" fill="none" xmlns="http://www.w3.org/2000/svg">
<g clip-path="url(#clip0_1_46)">
<path fill-rule="evenodd" clip-rule="evenodd" d="M19.2806 11.7806C19.1399 11.9215 18.9491 12.0006 18.75 12.0006C18.5509 12.0006 18.3601 11.9215 18.2194 11.7806L12 5.56031L5.78062 11.7806C5.48757 12.0737 5.01243 12.0737 4.71938 11.7806C4.42632 11.4876 4.42632 11.0124 4.71938 10.7194L11.4694 3.96937C11.6101 3.82854 11.8009 3.74941 12 3.74941C12.1991 3.74941 12.3899 3.82854 12.5306 3.96937L19.2806 10.7194C19.4215 10.8601 19.5006 11.0509 19.5006 11.25C19.5006 11.4491 19.4215 11.6399 19.2806 11.7806Z" fill="white"/>
</g>
<defs>
<clipPath id="clip0_1_46">
<rect width="24" height="24" fill="white"/>
</clipPath>
</defs>
</svg>
