<svg width="24" height="24" viewBox="0 0 24 24" fill="none" xmlns="http://www.w3.org/2000/svg">
<g clip-path="url(#clip0_1_32)">
<path fill-rule="evenodd" clip-rule="evenodd" d="M9.75 3.75H5.25C4.42157 3.75 3.75 4.42157 3.75 5.25V9.75C3.75 10.5784 4.42157 11.25 5.25 11.25H9.75C10.5784 11.25 11.25 10.5784 11.25 9.75V5.25C11.25 4.42157 10.5784 3.75 9.75 3.75ZM9.75 9.75H5.25V5.25H9.75V9.75ZM18.75 3.75H14.25C13.4216 3.75 12.75 4.42157 12.75 5.25V9.75C12.75 10.5784 13.4216 11.25 14.25 11.25H18.75C19.5784 11.25 20.25 10.5784 20.25 9.75V5.25C20.25 4.42157 19.5784 3.75 18.75 3.75ZM18.75 9.75H14.25V5.25H18.75V9.75ZM9.75 12.75H5.25C4.42157 12.75 3.75 13.4216 3.75 14.25V18.75C3.75 19.5784 4.42157 20.25 5.25 20.25H9.75C10.5784 20.25 11.25 19.5784 11.25 18.75V14.25C11.25 13.4216 10.5784 12.75 9.75 12.75ZM9.75 18.75H5.25V14.25H9.75V18.75ZM18.75 12.75H14.25C13.4216 12.75 12.75 13.4216 12.75 14.25V18.75C12.75 19.5784 13.4216 20.25 14.25 20.25H18.75C19.5784 20.25 20.25 19.5784 20.25 18.75V14.25C20.25 13.4216 19.5784 12.75 18.75 12.75ZM18.75 18.75H14.25V14.25H18.75V18.75Z" fill="white"/>
</g>
<defs>
<clipPath id="clip0_1_32">
<rect width="24" height="24" fill="white"/>
</clipPath>
</defs>
</svg>
